<?xml version="1.0" encoding="utf-8"?>
<!-- Generator: Adobe Illustrator 26.4.1, SVG Export Plug-In . SVG Version: 6.00 Build 0)  -->
<svg version="1.1" id="Capa_1" xmlns="http://www.w3.org/2000/svg" xmlns:xlink="http://www.w3.org/1999/xlink" x="0px" y="0px"
	 viewBox="0 0 1761 768" style="enable-background:new 0 0 1761 768;" xml:space="preserve">
<style type="text/css">
	.st0{display:none;fill:#FFFFFF;}
	.st1{fill-rule:evenodd;clip-rule:evenodd;fill:#404040;}
	.st2{fill:none;stroke:#000000;stroke-width:0.5;stroke-miterlimit:8;}
	.st3{fill:none;stroke:#FFC000;stroke-miterlimit:8;}
	.st4{fill:none;stroke:#4472C4;stroke-miterlimit:8;}
	.st5{fill:none;stroke:#C00000;stroke-miterlimit:8;}
	.st6{fill-rule:evenodd;clip-rule:evenodd;fill:#E7E6E6;}
	.st7{fill:none;stroke:#3B3838;stroke-miterlimit:8;}
	.st8{fill:#E7E6E6;}
	.st9{fill:none;stroke:#3B3838;stroke-width:1.5;stroke-miterlimit:8;}
	.st10{fill:none;stroke:#767171;stroke-width:1.5;stroke-miterlimit:8;}
	.st11{fill-rule:evenodd;clip-rule:evenodd;fill:#AFABAB;stroke:#000000;stroke-miterlimit:10;}
	.st12{fill-rule:evenodd;clip-rule:evenodd;fill:#767171;}
	.st13{fill:#767171;}
	.st14{fill-rule:evenodd;clip-rule:evenodd;fill:#7F7F7F;}
	.st15{fill-rule:evenodd;clip-rule:evenodd;fill:#AFABAB;}
	.st16{fill:none;stroke:#3B3838;stroke-width:0.5;stroke-miterlimit:8;}
	.st17{fill-rule:evenodd;clip-rule:evenodd;fill:#F2F2F2;}
	.st18{fill:none;stroke:#BFBFBF;stroke-miterlimit:8;}
	.st19{fill:none;stroke:#FF0000;stroke-width:3;stroke-miterlimit:10;}
	.st20{clip-path:url(#SVGID_00000102541831217801822770000008878895511828319390_);}
	.st21{fill:none;stroke:#000000;stroke-miterlimit:10;}
	.st22{fill-rule:evenodd;clip-rule:evenodd;fill:#D9D9D9;}
	.st23{fill:none;stroke:#595959;stroke-miterlimit:8;}
	.st24{fill-rule:evenodd;clip-rule:evenodd;fill:#D9D9D9;stroke:#000000;stroke-miterlimit:10;}
	.st25{fill-rule:evenodd;clip-rule:evenodd;fill:#C00000;}
	.st26{fill:none;stroke:#404040;stroke-miterlimit:8;}
	.st27{fill-rule:evenodd;clip-rule:evenodd;fill:#2F5597;}
	.st28{fill-rule:evenodd;clip-rule:evenodd;fill:#FFC000;}
	.st29{fill:none;stroke:#000000;stroke-miterlimit:8;}
	.st30{fill-rule:evenodd;clip-rule:evenodd;fill:#2F5597;stroke:#000000;stroke-miterlimit:10;}
	.st31{fill-rule:evenodd;clip-rule:evenodd;fill:#70AD47;}
	.st32{fill-rule:evenodd;clip-rule:evenodd;fill:#7F7F7F;stroke:#000000;stroke-miterlimit:10;}
	.st33{fill-rule:evenodd;clip-rule:evenodd;fill:#4472C4;stroke:#000000;stroke-miterlimit:10;}
	.st34{fill:none;stroke:#7F7F7F;stroke-miterlimit:8;}
	.st35{fill:none;stroke:#000000;stroke-width:0.75;stroke-miterlimit:10;}
	.st36{fill:none;stroke:#000000;stroke-width:0.75;stroke-miterlimit:10;stroke-dasharray:0,0,11.97,11.97;}
	.st37{font-family:'ArialRoundedMTBold';}
	.st38{font-size:15px;}
	.st39{fill:none;stroke:#4472C4;stroke-width:3;stroke-miterlimit:8;}
	.st40{fill:none;stroke:#FFC000;stroke-width:3;stroke-miterlimit:8;}
	.st41{fill:#181B1F;}
	.st42{fill:#C00000;}
	.st43{fill:none;stroke:#000000;stroke-width:0.75;stroke-miterlimit:10;stroke-dasharray:0,0,12.02,12.02;}
	.st44{fill:none;stroke:#000000;stroke-width:0.75;stroke-miterlimit:10;stroke-dasharray:0,0,11.94,11.94;}
	.st45{fill:none;stroke:#808080;stroke-width:2;stroke-miterlimit:8;}
</style>
<rect y="0" class="st0" width="1761" height="768"/>
<g>
	<polygon class="st1" points="127.9,116.4 34.7,116.4 34.7,109.3 127.9,109.3 	"/>
	<polygon class="st2" points="124.9,116.4 31.7,116.4 31.7,109.3 124.9,109.3 	"/>
	<g>
		<polygon class="st1" points="34.9,94 34.9,337.9 28.2,337.9 28.2,94 		"/>
		<polygon class="st2" points="34.9,94 34.9,337.9 28.2,337.9 28.2,94 		"/>
		<g>
			<g>
				<polygon class="st1" points="130.9,94 130.9,337.9 124.2,337.9 124.2,94 				"/>
				<polygon class="st2" points="130.9,94 130.9,337.9 124.2,337.9 124.2,94 				"/>
				<path class="st3" d="M67.5,115.5c14.8,23.5,29.2,49.8,73.4,61.5s117.7,11.5,191.3,11.4"/>
			</g>
			<path class="st4" d="M51.5,115.5c17.2,33.2,31.1,68.1,78.2,80.1s124.2,2.9,201.3-6.2"/>
		</g>
		<path class="st5" d="M94.5,114.5c16.1,31.2,29.7,63.1,69.7,75.3c40.1,12.2,104,5.6,168-1.1"/>
	</g>
</g>
<g>
	<polygon class="st6" points="698.1,209.1 809,209.1 809,335.7 698.1,335.7 	"/>
	<polygon class="st7" points="698.1,209.1 809,209.1 809,335.7 698.1,335.7 	"/>
	<g>
		<polygon class="st6" points="809.4,224.8 822,224.8 822,258.1 809.4,258.1 		"/>
		<polygon class="st7" points="809.4,224.8 822,224.8 822,258.1 809.4,258.1 		"/>
		<g>
			<path class="st8" d="M733.7,222.1h41.7c5.1,0,9.2,4.1,9.2,9.2V268c0,5.1-4.1,9.2-9.2,9.2h-41.7c-5.1,0-9.2-4.1-9.2-9.2v-36.7
				C724.5,226.2,728.6,222.1,733.7,222.1z"/>
			<path class="st7" d="M733.7,222.1h41.7c5.1,0,9.2,4.1,9.2,9.2V268c0,5.1-4.1,9.2-9.2,9.2h-41.7c-5.1,0-9.2-4.1-9.2-9.2v-36.7
				C724.5,226.2,728.6,222.1,733.7,222.1z"/>
			<line class="st9" x1="696.8" y1="290" x2="810.3" y2="290"/>
		</g>
	</g>
</g>
<g>
	<line class="st10" x1="305.3" y1="265.1" x2="271.8" y2="265.1"/>
	<g>
		<line class="st10" x1="305.3" y1="310.2" x2="271.8" y2="310.2"/>
		<g>
			<polygon class="st11" points="304.6,227.1 410,227.1 410,333.5 304.6,333.5 			"/>
			<polygon class="st7" points="304.6,227.1 410,227.1 410,333.5 304.6,333.5 			"/>
			<g>
				<path class="st12" d="M314.6,224.7c0-1.9,8.1-3.4,18.1-3.4s18.1,1.5,18.1,3.4s-8.1,3.4-18.1,3.4S314.6,226.6,314.6,224.7
					L314.6,224.7z"/>
				<path class="st7" d="M314.6,224.7c0-1.9,8.1-3.4,18.1-3.4s18.1,1.5,18.1,3.4s-8.1,3.4-18.1,3.4S314.6,226.6,314.6,224.7
					L314.6,224.7z"/>
				<g>
					<path class="st12" d="M314.6,220.1c0-1.8,8.1-3.2,18.1-3.2s18.1,1.4,18.1,3.2s-8.1,3.2-18.1,3.2S314.6,221.8,314.6,220.1
						L314.6,220.1z"/>
					<path class="st7" d="M314.6,220.1c0-1.8,8.1-3.2,18.1-3.2s18.1,1.4,18.1,3.2s-8.1,3.2-18.1,3.2S314.6,221.8,314.6,220.1
						L314.6,220.1z"/>
					<g>
						<path class="st12" d="M314.6,214.5c0-1.9,8.1-3.4,18.1-3.4s18.1,1.5,18.1,3.4s-8.1,3.4-18.1,3.4S314.6,216.3,314.6,214.5
							L314.6,214.5z"/>
						<path class="st7" d="M314.6,214.5c0-1.9,8.1-3.4,18.1-3.4s18.1,1.5,18.1,3.4s-8.1,3.4-18.1,3.4S314.6,216.3,314.6,214.5
							L314.6,214.5z"/>
						<g>
							<path class="st12" d="M314.6,209.8c0-1.8,8.1-3.2,18.1-3.2s18.1,1.4,18.1,3.2s-8.1,3.2-18.1,3.2S314.6,211.6,314.6,209.8
								L314.6,209.8z"/>
							<path class="st7" d="M314.6,209.8c0-1.8,8.1-3.2,18.1-3.2s18.1,1.4,18.1,3.2s-8.1,3.2-18.1,3.2S314.6,211.6,314.6,209.8
								L314.6,209.8z"/>
							<g>
								<path class="st12" d="M314.6,205.2c0-1.9,8.1-3.4,18.1-3.4s18.1,1.5,18.1,3.4s-8.1,3.4-18.1,3.4S314.6,207,314.6,205.2
									L314.6,205.2z"/>
								<path class="st7" d="M314.6,205.2c0-1.9,8.1-3.4,18.1-3.4s18.1,1.5,18.1,3.4s-8.1,3.4-18.1,3.4S314.6,207,314.6,205.2
									L314.6,205.2z"/>
								<g>
									<path class="st12" d="M371.9,224.7c0-1.9,4.9-3.4,10.9-3.4s10.9,1.5,10.9,3.4s-4.9,3.4-10.9,3.4S371.9,226.6,371.9,224.7
										L371.9,224.7z"/>
									<path class="st7" d="M371.9,224.7c0-1.9,4.9-3.4,10.9-3.4s10.9,1.5,10.9,3.4s-4.9,3.4-10.9,3.4S371.9,226.6,371.9,224.7
										L371.9,224.7z"/>
									<g>
										<path class="st12" d="M371.9,220.1c0-1.8,4.9-3.2,10.9-3.2s10.9,1.4,10.9,3.2s-4.9,3.2-10.9,3.2S371.9,221.8,371.9,220.1
											L371.9,220.1z"/>
										<path class="st7" d="M371.9,220.1c0-1.8,4.9-3.2,10.9-3.2s10.9,1.4,10.9,3.2s-4.9,3.2-10.9,3.2S371.9,221.8,371.9,220.1
											L371.9,220.1z"/>
										<g>
											<path class="st12" d="M371.3,214.5c0-1.9,4.9-3.4,10.9-3.4s10.9,1.5,10.9,3.4s-4.9,3.4-10.9,3.4S371.3,216.3,371.3,214.5
												L371.3,214.5z"/>
											<path class="st7" d="M371.3,214.5c0-1.9,4.9-3.4,10.9-3.4s10.9,1.5,10.9,3.4s-4.9,3.4-10.9,3.4S371.3,216.3,371.3,214.5
												L371.3,214.5z"/>
											<g>
												<path class="st12" d="M371.3,209.8c0-1.8,4.9-3.2,10.9-3.2s10.9,1.4,10.9,3.2s-4.9,3.2-10.9,3.2
													S371.3,211.6,371.3,209.8L371.3,209.8z"/>
												<path class="st7" d="M371.3,209.8c0-1.8,4.9-3.2,10.9-3.2s10.9,1.4,10.9,3.2s-4.9,3.2-10.9,3.2S371.3,211.6,371.3,209.8
													L371.3,209.8z"/>
												<g>
													<path class="st12" d="M314.6,200.7c0-1.9,8.1-3.4,18.1-3.4s18.1,1.5,18.1,3.4s-8.1,3.4-18.1,3.4
														S314.6,202.5,314.6,200.7L314.6,200.7z"/>
													<path class="st7" d="M314.6,200.7c0-1.9,8.1-3.4,18.1-3.4s18.1,1.5,18.1,3.4s-8.1,3.4-18.1,3.4
														S314.6,202.5,314.6,200.7L314.6,200.7z"/>
													<g>
														<polygon class="st12" points="328.7,199.6 333.3,191.3 338,199.6 														"/>
														<polygon class="st7" points="328.7,199.6 333.3,191.3 338,199.6 														"/>
														<g>
															<polygon class="st12" points="378.3,208.5 383,200.2 387.6,208.5 															"/>
															<polygon class="st7" points="378.3,208.5 383,200.2 387.6,208.5 															"/>
															<g>
																<path class="st13" d="M338.5,256.6h39.3c5.4,0,9.8,4.4,9.8,9.8v46.3c0,5.4-4.4,9.8-9.8,9.8h-39.3
																	c-5.4,0-9.8-4.4-9.8-9.8v-46.3C328.7,261,333.1,256.6,338.5,256.6z"/>
																<path class="st7" d="M338.5,256.6h39.3c5.4,0,9.8,4.4,9.8,9.8v46.3c0,5.4-4.4,9.8-9.8,9.8h-39.3
																	c-5.4,0-9.8-4.4-9.8-9.8v-46.3C328.7,261,333.1,256.6,338.5,256.6z"/>
																<g>
																	<path class="st14" d="M363.3,243.1c0-3.4,3.9-6.1,8.6-6.1s8.6,2.7,8.6,6.1s-3.9,6.1-8.6,6.1
																		S363.3,246.5,363.3,243.1L363.3,243.1z"/>
																	<path class="st7" d="M363.3,243.1c0-3.4,3.9-6.1,8.6-6.1s8.6,2.7,8.6,6.1s-3.9,6.1-8.6,6.1
																		S363.3,246.5,363.3,243.1L363.3,243.1z"/>
																	<g>
																		<path class="st14" d="M333.8,243.1c0-3.4,3.9-6.1,8.6-6.1s8.6,2.7,8.6,6.1s-3.9,6.1-8.6,6.1
																			S333.8,246.5,333.8,243.1L333.8,243.1z"/>
																		<path class="st7" d="M333.8,243.1c0-3.4,3.9-6.1,8.6-6.1s8.6,2.7,8.6,6.1s-3.9,6.1-8.6,6.1
																			S333.8,246.5,333.8,243.1L333.8,243.1z"/>
																		<g>
																			<line class="st9" x1="293.3" y1="248.4" x2="293.3" y2="323.6"/>
																			<g>
																				<line class="st9" x1="286.5" y1="248.4" x2="286.5" y2="323.6"/>
																				<g>
																					<line class="st9" x1="279.2" y1="248.4" x2="279.2" y2="323.6"/>
																					<line class="st9" x1="272.8" y1="248.4" x2="272.8" y2="323.6"/>
																				</g>
																			</g>
																		</g>
																	</g>
																</g>
															</g>
														</g>
													</g>
												</g>
											</g>
										</g>
									</g>
								</g>
							</g>
						</g>
					</g>
				</g>
			</g>
		</g>
	</g>
</g>
<g>
	<polygon class="st12" points="1151.5,267.8 1138.8,267.8 1127.6,279 1127.6,290.3 1127.6,290.3 1140.3,290.3 1151.5,279 
		1151.5,267.8 	"/>
	<polygon class="st7" points="1151.5,267.8 1138.8,267.8 1127.6,279 1127.6,290.3 1127.6,290.3 1140.3,290.3 1151.5,279 
		1151.5,267.8 	"/>
	<g>
		<polygon class="st15" points="1128,245.4 1033,245.4 1033,333.6 1128,333.6 		"/>
		<polygon class="st7" points="1128,245.4 1033,245.4 1033,333.6 1128,333.6 		"/>
		<g>
			<path class="st13" d="M1063.3,256.2h34.4c4.7,0,8.6,3.9,8.6,8.6v50.9c0,4.7-3.9,8.6-8.6,8.6h-34.4c-4.7,0-8.6-3.9-8.6-8.6v-50.9
				C1054.7,260.1,1058.5,256.2,1063.3,256.2z"/>
			<path class="st7" d="M1063.3,256.2h34.4c4.7,0,8.6,3.9,8.6,8.6v50.9c0,4.7-3.9,8.6-8.6,8.6h-34.4c-4.7,0-8.6-3.9-8.6-8.6v-50.9
				C1054.7,260.1,1058.5,256.2,1063.3,256.2z"/>
			<g>
				<line class="st16" x1="1080.5" y1="256.2" x2="1080.5" y2="324.5"/>
				<g>
					<line class="st16" x1="1067" y1="256.2" x2="1067" y2="324.5"/>
					<g>
						<line class="st16" x1="1093.2" y1="256.2" x2="1093.2" y2="324.5"/>
						<g>
							<line class="st16" x1="1087.2" y1="256.2" x2="1087.2" y2="324.5"/>
							<g>
								<line class="st16" x1="1073.8" y1="324.5" x2="1073.8" y2="256.2"/>
								<g>
									<line class="st16" x1="1061" y1="256.2" x2="1061" y2="324.5"/>
									<g>
										<line class="st16" x1="1099.2" y1="256.2" x2="1099.2" y2="324.5"/>
										<g>
											<path class="st6" d="M1168,263.1c0-7.8-7-14-15.7-14s-15.7,6.3-15.7,14c0,7.7,7,14,15.7,14S1168,270.9,1168,263.1
												L1168,263.1z"/>
											<path class="st7" d="M1168,263.1c0-7.8-7-14-15.7-14s-15.7,6.3-15.7,14c0,7.7,7,14,15.7,14S1168,270.9,1168,263.1
												L1168,263.1z"/>
										</g>
									</g>
								</g>
							</g>
						</g>
					</g>
				</g>
			</g>
		</g>
	</g>
</g>
<g>
	<polygon class="st17" points="1374.6,271.1 1420.6,271.1 1420.6,335.1 1374.6,335.1 	"/>
	<polygon class="st18" points="1374.6,271.1 1420.6,271.1 1420.6,335.1 1374.6,335.1 	"/>
	<polyline class="st19" points="1405.5,302.2 1405.5,318.5 1508,318.5 	"/>
	<g>
		<g>
			<g>
				<defs>
					<rect id="SVGID_1_" x="1372.5" y="269" width="50.2" height="68.2"/>
				</defs>
				<clipPath id="SVGID_00000062194255465076869090000007733262332828276649_">
					<use xlink:href="#SVGID_1_"  style="overflow:visible;"/>
				</clipPath>
				<g style="clip-path:url(#SVGID_00000062194255465076869090000007733262332828276649_);">
					<polygon class="st6" points="1385.4,285.5 1411.8,285.5 1411.8,310.9 1385.4,310.9 					"/>
					<polygon class="st7" points="1385.4,285.5 1411.8,285.5 1411.8,310.9 1385.4,310.9 					"/>
				</g>
			</g>
		</g>
		<polygon class="st21" points="1372.5,337.2 1422.7,337.2 1422.7,269 1372.5,269 		"/>
	</g>
</g>
<g>
	<polyline class="st22" points="1560.3,289.4 1560.3,281.7 1560.3,281.7 1719,281.7 1719,289.4 	"/>
	<polygon class="st23" points="1560.3,281.7 1719,281.7 1719,290.6 1560.3,290.6 	"/>
	<g>
		<polygon class="st24" points="1605.5,237.5 1719,237.5 1719,255 1605.5,255 		"/>
		<g>
			<polygon class="st25" points="1521.8,267.9 1560.6,267.9 1560.6,307.4 1521.8,307.4 			"/>
			<polygon class="st26" points="1521.8,267.9 1560.6,267.9 1560.6,307.4 1521.8,307.4 			"/>
			<g>
				<polygon class="st27" points="1521.8,227.9 1560.6,227.9 1560.6,267.9 1521.8,267.9 				"/>
				<polygon class="st26" points="1521.8,227.9 1560.6,227.9 1560.6,267.9 1521.8,267.9 				"/>
				<g>
					<polygon class="st28" points="1521.8,187.9 1560.6,187.9 1560.6,227.9 1521.8,227.9 					"/>
					<polygon class="st26" points="1521.8,187.9 1560.6,187.9 1560.6,227.9 1521.8,227.9 					"/>
					<g>
						<path class="st25" d="M1525.3,288.1c0-8.1,7.2-14.7,16.1-14.7s16.1,6.6,16.1,14.7s-7.2,14.7-16.1,14.7
							S1525.3,296.2,1525.3,288.1L1525.3,288.1z"/>
						<path class="st29" d="M1525.3,288.1c0-8.1,7.2-14.7,16.1-14.7s16.1,6.6,16.1,14.7s-7.2,14.7-16.1,14.7
							S1525.3,296.2,1525.3,288.1L1525.3,288.1z"/>
						<g>
							<path class="st27" d="M1562.1,246.8c0-9.3,7.7-16.8,17.1-16.8s17.1,7.5,17.1,16.8c0,9.3-7.7,16.8-17.1,16.8
								S1562.1,256.1,1562.1,246.8L1562.1,246.8L1562.1,246.8z"/>
							<path class="st29" d="M1562.1,246.8c0-9.3,7.7-16.8,17.1-16.8s17.1,7.5,17.1,16.8c0,9.3-7.7,16.8-17.1,16.8
								S1562.1,256.1,1562.1,246.8L1562.1,246.8L1562.1,246.8z"/>
							<g>
								<path class="st28" d="M1525.3,207.9c0-8.5,7.2-15.4,16.1-15.4s16.1,6.9,16.1,15.4s-7.2,15.4-16.1,15.4
									S1525.3,216.3,1525.3,207.9L1525.3,207.9z"/>
								<path class="st29" d="M1525.3,207.9c0-8.5,7.2-15.4,16.1-15.4s16.1,6.9,16.1,15.4s-7.2,15.4-16.1,15.4
									S1525.3,216.3,1525.3,207.9L1525.3,207.9z"/>
								<g>
									<polygon class="st27" points="1598.1,234.6 1607.9,234.6 1607.9,259.9 1598.1,259.9 									"/>
									<polygon class="st26" points="1598.1,234.6 1607.9,234.6 1607.9,259.9 1598.1,259.9 									"/>
									<g>
										<line class="st2" x1="1529.9" y1="197.1" x2="1552.6" y2="218.9"/>
										<g>
											<line class="st2" x1="1552.6" y1="197.1" x2="1529.9" y2="218.9"/>
											<g>
												<line class="st2" x1="1552.6" y1="277.5" x2="1529.9" y2="298.5"/>
												<g>
													<line class="st2" x1="1529.9" y1="277.5" x2="1552.6" y2="298.5"/>
													<g>
														<line class="st2" x1="1567" y1="235" x2="1591.3" y2="258.7"/>
														<g>
															<line class="st2" x1="1591.3" y1="235" x2="1567" y2="258.7"/>
															<g>
																<polygon class="st25" points="1508.4,308.3 1574.1,308.3 1574.1,335.2 1508.4,335.2 																"/>
																<polygon class="st26" points="1508.4,308.3 1574.1,308.3 1574.1,335.2 1508.4,335.2 																"/>
															</g>
														</g>
													</g>
												</g>
											</g>
										</g>
									</g>
								</g>
							</g>
						</g>
					</g>
				</g>
			</g>
		</g>
	</g>
</g>
<g>
	<polygon class="st30" points="1525,487.5 1553.4,487.5 1553.4,523.1 1525,523.1 	"/>
	<polygon class="st26" points="1524.1,487.5 1554.4,487.5 1554.4,523.1 1524.1,523.1 	"/>
	<g>
		<polygon class="st14" points="1553,704.6 1550.3,718.8 1529.1,718.8 1524.5,704.6 		"/>
		<polygon class="st26" points="1553,704.6 1550.3,718.8 1529.1,718.8 1524.5,704.6 		"/>
		<g>
			<path class="st31" d="M1531.1,720.3c0-4.3,3.8-7.7,8.6-7.7s8.6,3.5,8.6,7.7s-3.8,7.7-8.6,7.7S1531.1,724.6,1531.1,720.3
				L1531.1,720.3z"/>
			<path class="st26" d="M1531.1,720.3c0-4.3,3.8-7.7,8.6-7.7s8.6,3.5,8.6,7.7s-3.8,7.7-8.6,7.7S1531.1,724.6,1531.1,720.3
				L1531.1,720.3z"/>
			<g>
				<polygon class="st32" points="1524.5,523 1553,523 1553,703.2 1524.5,703.2 				"/>
				<g>
					<polygon class="st33" points="1524.3,375 1554,375 1554,485.8 1524.3,485.8 					"/>
					<polygon class="st34" points="1525.3,338.5 1552.7,338.5 1552.7,485.8 1525.3,485.8 					"/>
					<line class="st26" x1="1554.4" y1="486.2" x2="1524.5" y2="486.2"/>
				</g>
			</g>
		</g>
	</g>
</g>
<g>
	<line class="st35" x1="7.2" y1="336.9" x2="13.2" y2="336.9"/>
	<line class="st36" x1="25.2" y1="336.9" x2="1719" y2="336.9"/>
	<line class="st35" x1="1725" y1="336.9" x2="1731" y2="336.9"/>
</g>
<text transform="matrix(1 0 0 1 50.05 98.71)" class="st37 st38">PO</text>
<text transform="matrix(1 0 0 1 71.93 98.71)" class="st37 st38">R</text>
<text transform="matrix(1 0 0 1 81.98 98.71)" class="st37 st38">TICO</text>
<ellipse class="st39" cx="92.5" cy="112.7" rx="1.5" ry="5.2"/>
<ellipse class="st40" cx="108.5" cy="112.7" rx="1.5" ry="5.2"/>
<g>
	<path class="st41" d="M135.5,116.2c-0.3-0.7-0.5-1.9-0.5-3.4s0.2-2.7,0.5-3.4c0.3,0.7,0.5,1.9,0.5,3.4S135.8,115.4,135.5,116.2z"/>
	<path class="st42" d="M135.5,106.5c-1.4,0-2.5,2.8-2.5,6.2s1.1,6.2,2.5,6.2s2.5-2.8,2.5-6.2S136.9,106.5,135.5,106.5L135.5,106.5z"
		/>
</g>
<text transform="matrix(1 0 0 1 335.9 155.43)" class="st37 st38">SDT</text>
<text transform="matrix(1 0 0 1 737.9 254.43)" class="st41 st37 st38">VFD</text>
<text transform="matrix(1 0 0 1 1064.75 224.43)" class="st37 st38">SUT</text>
<text transform="matrix(1 0 0 1 830.69 188.43)" class="st37 st38">SKID</text>
<text transform="matrix(1 0 0 1 1384.03 191.43)" class="st37 st38">CABEZAL</text>
<text transform="matrix(1 0 0 1 1431.65 302.43)" class="st37 st38">VENTEO</text>
<path class="st43" d="M547.6,159.5h583.7c24.4,0,44.1,19.8,44.1,44.1v106.7c0,24.4-19.8,44.1-44.1,44.1H547.6
	c-24.4,0-44.1-19.8-44.1-44.1V203.6C503.5,179.3,523.3,159.5,547.6,159.5z"/>
<path class="st44" d="M1369.6,156.5h339.7c24.4,0,44.1,19.8,44.1,44.1v106.7c0,24.4-19.8,44.1-44.1,44.1h-339.7
	c-24.4,0-44.1-19.8-44.1-44.1V200.6C1325.5,176.3,1345.3,156.5,1369.6,156.5z"/>
<polyline class="st19" points="1088,326 1088,378.3 1303.1,378.3 1393,378.5 1392.5,309.9 "/>
<polyline class="st19" points="767.5,276.5 767.8,378.3 1071,378.3 1070.5,326 "/>
<polyline class="st19" points="382.3,199.2 381,157.4 442.7,157.4 442.7,378.3 745,378.3 745,276.2 "/>
<rect x="1508" y="338" class="st45" width="59" height="414"/>
<rect x="1520" y="338" class="st45" width="38" height="414"/>
<g>
	<line class="st35" x1="1525" y1="375" x2="1531" y2="375"/>
</g>
<g>
	<line class="st35" x1="1525" y1="486.5" x2="1531" y2="486.5"/>
</g>
<g>
	<line class="st35" x1="1524" y1="521.5" x2="1530" y2="521.5"/>
</g>
<g>
	<line class="st35" x1="1525" y1="703.2" x2="1531" y2="703.2"/>
</g>
</svg>
